<svg width="32" height="25" viewBox="0 0 32 25" fill="none" xmlns="http://www.w3.org/2000/svg">
<path d="M19 21.125V3.875C19 3.1125 18.6839 2.38123 18.1213 1.84207C17.5587 1.3029 16.7956 1 16 1H4C3.20435 1 2.44129 1.3029 1.87868 1.84207C1.31607 2.38123 1 3.1125 1 3.875V19.6875C1 20.0687 1.15804 20.4344 1.43934 20.704C1.72064 20.9736 2.10218 21.125 2.5 21.125H5.5M5.5 21.125C5.5 22.7128 6.84315 24 8.5 24C10.1569 24 11.5 22.7128 11.5 21.125M5.5 21.125C5.5 19.5372 6.84315 18.25 8.5 18.25C10.1569 18.25 11.5 19.5372 11.5 21.125M20.5 21.125H11.5M20.5 21.125C20.5 22.7128 21.8431 24 23.5 24C25.1569 24 26.5 22.7128 26.5 21.125M20.5 21.125C20.5 19.5372 21.8431 18.25 23.5 18.25C25.1569 18.25 26.5 19.5372 26.5 21.125M26.5 21.125H29.5C29.8978 21.125 30.2794 20.9736 30.5607 20.704C30.842 20.4344 31 20.0687 31 19.6875V14.4406C30.9994 14.1144 30.883 13.7981 30.67 13.5436L25.45 7.2905C25.3097 7.12214 25.1317 6.98615 24.9292 6.8926C24.7267 6.79904 24.5048 6.75031 24.28 6.75H19" stroke="#7B1C19" stroke-width="1.5" stroke-linecap="round" stroke-linejoin="round"/>
</svg>
