<svg width="33" height="25" viewBox="0 0 33 25" fill="none" xmlns="http://www.w3.org/2000/svg">
<path d="M19.6641 21.125V3.875C19.6641 3.1125 19.348 2.38123 18.7854 1.84207C18.2228 1.3029 17.4597 1 16.6641 1H4.66406C3.86841 1 3.10535 1.3029 2.54274 1.84207C1.98013 2.38123 1.66406 3.1125 1.66406 3.875V19.6875C1.66406 20.0687 1.8221 20.4344 2.1034 20.704C2.38471 20.9736 2.76624 21.125 3.16406 21.125H6.16406M6.16406 21.125C6.16406 22.7128 7.50721 24 9.16406 24C10.8209 24 12.1641 22.7128 12.1641 21.125M6.16406 21.125C6.16406 19.5372 7.50721 18.25 9.16406 18.25C10.8209 18.25 12.1641 19.5372 12.1641 21.125M21.1641 21.125H12.1641M21.1641 21.125C21.1641 22.7128 22.5072 24 24.1641 24C25.8209 24 27.1641 22.7128 27.1641 21.125M21.1641 21.125C21.1641 19.5372 22.5072 18.25 24.1641 18.25C25.8209 18.25 27.1641 19.5372 27.1641 21.125M27.1641 21.125H30.1641C30.5619 21.125 30.9434 20.9736 31.2247 20.704C31.506 20.4344 31.6641 20.0687 31.6641 19.6875V14.4406C31.6635 14.1144 31.5471 13.7981 31.3341 13.5436L26.1141 7.2905C25.9738 7.12214 25.7958 6.98615 25.5933 6.8926C25.3908 6.79904 25.1689 6.75031 24.9441 6.75H19.6641" stroke="#7B1C19" stroke-width="1.5" stroke-linecap="round" stroke-linejoin="round"/>
</svg>
