<svg width="31" height="30" viewBox="0 0 31 30" fill="none" xmlns="http://www.w3.org/2000/svg">
<path d="M15.3359 12.4646V17.8M15.3359 12.4646C15.7276 12.4646 16.1148 12.5464 16.4727 12.7054L27.9359 17.8C27.958 20.7542 27.1739 23.6584 25.6679 26.2M15.3359 12.4646C14.9443 12.4646 14.557 12.5464 14.1991 12.7054L2.73594 17.8C2.67113 21.7811 4.07114 25.6474 6.66994 28.664M15.3359 1V5.2M25.1359 16.4V8C25.1359 7.25739 24.8409 6.5452 24.3158 6.0201C23.7907 5.495 23.0785 5.2 22.3359 5.2H8.33594C7.59333 5.2 6.88114 5.495 6.35604 6.0201C5.83094 6.5452 5.53594 7.25739 5.53594 8V16.4M1.33594 27.6C2.17594 28.3 3.01594 29 4.83594 29C8.33594 29 8.33594 26.2 11.8359 26.2C13.6559 26.2 14.4959 26.9 15.3359 27.6C16.1759 28.3 17.0159 29 18.8359 29C22.3359 29 22.3359 26.2 25.8359 26.2C27.6559 26.2 28.4959 26.9 29.3359 27.6" stroke="#7B1C19" stroke-width="1.5" stroke-linecap="round" stroke-linejoin="round"/>
</svg>
