<svg width="30" height="30" viewBox="0 0 30 30" fill="none" xmlns="http://www.w3.org/2000/svg">
<path d="M23.7849 26.2289L21.0137 13.6048L26.4021 8.2165C28.7113 5.90722 29.4811 2.82818 28.7113 1.28866C27.1718 0.5189 24.0928 1.28866 21.7835 3.59794L16.3952 8.98625L3.77113 6.21512C3.00137 6.06117 2.38557 6.36907 2.07766 6.98488L1.61581 7.75464C1.3079 8.5244 1.46186 9.29416 2.07766 9.75601L10.2371 15.1443L7.15808 19.7629H2.53952L1 21.3024L5.61856 24.3814L8.69759 29L10.2371 27.4605V22.8419L14.8557 19.7629L20.244 27.9223C20.7058 28.5381 21.4756 28.6921 22.2454 28.3842L23.0151 28.0763C23.6309 27.6144 23.9388 26.9986 23.7849 26.2289Z" stroke="#7B1C19" stroke-width="1.5" stroke-linecap="round" stroke-linejoin="round"/>
</svg>
