<svg width="27" height="32" viewBox="0 0 27 32" fill="none" xmlns="http://www.w3.org/2000/svg">
<path d="M7.66406 2.65V8.5C7.66406 10.0913 8.2962 11.6174 9.42142 12.7426C10.5466 13.8679 12.0728 14.5 13.6641 14.5C15.2554 14.5 16.7815 13.8679 17.9067 12.7426C19.0319 11.6174 19.6641 10.0913 19.6641 8.5V2.65M9.16406 20.5L7.66406 19M18.1641 20.5L19.6641 19M7.66406 26.5L4.66406 31M19.6641 26.5L22.6641 31M9.16406 26.5C4.96406 26.5 1.66406 23.2 1.66406 19V13C1.66406 9.8174 2.92834 6.76516 5.17878 4.51472C7.42922 2.26428 10.4815 1 13.6641 1C16.8467 1 19.8989 2.26428 22.1493 4.51472C24.3998 6.76516 25.6641 9.8174 25.6641 13V19C25.6641 23.2 22.3641 26.5 18.1641 26.5H9.16406Z" stroke="#7B1C19" stroke-width="1.5" stroke-linecap="round" stroke-linejoin="round"/>
</svg>
