<svg width="280" height="280" viewBox="0 0 280 280" fill="none" xmlns="http://www.w3.org/2000/svg">
<path d="M271 255L275.273 247.468L266.613 247.533L271 255ZM10 10H9.25C9.25 10.694 9.25498 11.3837 9.26491 12.0692L10.0148 12.0584L10.7648 12.0475C10.7549 11.3693 10.75 10.6868 10.75 10H10ZM10.1327 16.0985L9.38344 16.1315C9.4425 17.4689 9.52098 18.7896 9.61857 20.0939L10.3665 20.0379L11.1144 19.982C11.018 18.6931 10.9404 17.3877 10.882 16.0654L10.1327 16.0985ZM10.7141 23.8785L9.96828 23.958C10.1139 25.3257 10.2813 26.6749 10.4699 28.0058L11.2125 27.9005L11.9551 27.7953C11.7689 26.4818 11.6037 25.1499 11.4598 23.7991L10.7141 23.8785ZM11.8421 31.8376L11.1037 31.9694C11.3363 33.2723 11.5899 34.5571 11.8643 35.8241L12.5973 35.6654L13.3303 35.5067C13.0599 34.2577 12.8097 32.9909 12.5804 31.7058L11.8421 31.8376ZM13.5139 39.5357L12.7876 39.7228C13.126 41.0364 13.4874 42.3301 13.8714 43.6044L14.5895 43.388L15.3076 43.1716C14.9295 41.9169 14.5736 40.6427 14.2402 39.3486L13.5139 39.5357ZM15.799 47.1239L15.0904 47.3696C15.5296 48.6364 15.9919 49.8832 16.4767 51.1106L17.1743 50.835L17.8718 50.5595C17.3948 49.3519 16.9399 48.125 16.5076 46.8782L15.799 47.1239ZM18.7216 54.5155L18.0368 54.8212C18.58 56.038 19.1463 57.2349 19.7349 58.4123L20.4057 58.077L21.0766 57.7416C20.4977 56.5837 19.9408 55.4066 19.4065 54.2097L18.7216 54.5155ZM22.2547 61.58L21.5994 61.9447C22.2525 63.1185 22.9287 64.2721 23.6273 65.4063L24.2658 65.0129L24.9044 64.6196C24.2174 63.5042 23.5524 62.3697 22.9101 61.2154L22.2547 61.58ZM26.4103 68.3296L25.7895 68.7505C26.5389 69.8561 27.3105 70.9423 28.1034 72.0098L28.7054 71.5626L29.3075 71.1154C28.5273 70.065 27.7683 68.9964 27.0311 67.9088L26.4103 68.3296ZM31.1388 74.6977L30.5561 75.1699C31.3947 76.2047 32.2541 77.2212 33.1336 78.2199L33.6965 77.7243L34.2593 77.2286C33.3932 76.245 32.547 75.2441 31.7215 74.2255L31.1388 74.6977ZM36.372 80.6437L35.8291 81.1611C36.7471 82.1241 37.6843 83.07 38.64 83.9994L39.1629 83.4617L39.6857 82.924C38.7433 82.0075 37.8194 81.0751 36.9149 80.1262L36.372 80.6437ZM42.0645 86.1817L41.5615 86.738C42.5422 87.6247 43.5403 88.4959 44.5551 89.3521L45.0387 88.7789L45.5224 88.2057C44.5203 87.3602 43.5351 86.5003 42.5675 85.6254L42.0645 86.1817ZM48.1137 91.2881L47.649 91.8767C48.6936 92.7014 49.7541 93.5118 50.8298 94.3086L51.2762 93.7059L51.7226 93.1032C50.6589 92.3153 49.6106 91.5143 48.5785 90.6994L48.1137 91.2881ZM54.4803 96.0079L54.0513 96.6232C55.1395 97.3818 56.2418 98.1279 57.3576 98.8618L57.7698 98.2352L58.1819 97.6086C57.0771 96.8819 55.986 96.1434 54.9092 95.3927L54.4803 96.0079ZM61.1234 100.38L60.7272 101.017C61.8449 101.712 62.9748 102.396 64.1165 103.07L64.4976 102.424L64.8788 101.778C63.7469 101.11 62.627 100.432 61.5196 99.7432L61.1234 100.38ZM67.9427 104.406L67.5758 105.06C68.7336 105.71 69.9023 106.349 71.0814 106.98L71.435 106.318L71.7886 105.657C70.6181 105.031 69.4583 104.396 68.3097 103.752L67.9427 104.406ZM74.9321 108.145L74.591 108.813C75.7705 109.416 76.9595 110.01 78.1573 110.595L78.4868 109.922L78.8163 109.248C77.626 108.666 76.4448 108.076 75.2733 107.477L74.9321 108.145ZM82.0799 111.643L81.7612 112.322C82.9516 112.88 84.15 113.432 85.3558 113.976L85.6646 113.293L85.9733 112.609C84.7738 112.068 83.5821 111.519 82.3986 110.964L82.0799 111.643ZM89.2948 114.903L88.9953 115.59C90.2133 116.121 91.4383 116.645 92.6697 117.163L92.9606 116.472L93.2516 115.781C92.0257 115.265 90.8064 114.743 89.5942 114.215L89.2948 114.903ZM96.6072 117.983L96.324 118.677C97.5479 119.177 98.7776 119.671 100.012 120.16L100.289 119.463L100.565 118.766C99.3346 118.278 98.1096 117.786 96.8905 117.289L96.6072 117.983ZM104.002 120.914L103.732 121.614C104.961 122.088 106.194 122.557 107.431 123.023L107.696 122.321L107.96 121.619C106.726 121.155 105.497 120.687 104.272 120.214L104.002 120.914ZM111.411 123.705L111.152 124.409C112.396 124.867 113.644 125.322 114.895 125.773L115.149 125.068L115.404 124.363C114.156 123.912 112.912 123.458 111.671 123.001L111.411 123.705ZM118.881 126.404L118.63 127.111C119.875 127.553 121.122 127.993 122.371 128.43L122.619 127.722L122.867 127.014C121.62 126.578 120.374 126.139 119.132 125.698L118.881 126.404ZM126.371 129.028L126.126 129.737C127.376 130.169 128.628 130.6 129.881 131.03L130.124 130.32L130.368 129.611C129.116 129.182 127.865 128.751 126.616 128.319L126.371 129.028ZM133.877 131.602L133.635 132.312C134.887 132.739 136.14 133.164 137.393 133.589L137.634 132.879L137.875 132.169C136.622 131.744 135.37 131.318 134.119 130.892L133.877 131.602ZM141.394 134.153L141.153 134.863C142.407 135.288 143.66 135.712 144.912 136.137L145.153 135.426L145.394 134.716C144.141 134.291 142.888 133.867 141.634 133.442L141.394 134.153ZM148.91 136.702L148.668 137.412C149.919 137.838 151.168 138.264 152.417 138.692L152.66 137.982L152.903 137.273C151.653 136.845 150.403 136.418 149.151 135.992L148.91 136.702ZM156.42 139.275L156.175 139.984C157.426 140.417 158.675 140.85 159.921 141.286L160.168 140.578L160.416 139.87C159.168 139.434 157.917 138.999 156.665 138.567L156.42 139.275ZM163.902 141.893L163.652 142.599C164.902 143.043 166.149 143.488 167.392 143.937L167.647 143.231L167.901 142.526C166.655 142.076 165.405 141.63 164.153 141.186L163.902 141.893ZM171.38 144.59L171.121 145.294C172.36 145.749 173.595 146.208 174.825 146.67L175.089 145.968L175.353 145.266C174.119 144.803 172.881 144.343 171.639 143.886L171.38 144.59ZM178.801 147.38L178.532 148.08C179.77 148.556 181.004 149.037 182.232 149.523L182.507 148.825L182.783 148.128C181.551 147.641 180.313 147.158 179.07 146.68L178.801 147.38ZM186.18 150.299L185.897 150.994C187.122 151.492 188.34 151.996 189.552 152.505L189.843 151.814L190.133 151.122C188.916 150.611 187.693 150.105 186.463 149.604L186.18 150.299ZM193.506 153.38L193.207 154.068C194.418 154.595 195.621 155.127 196.817 155.667L197.125 154.983L197.434 154.3C196.232 153.757 195.022 153.222 193.805 152.692L193.506 153.38ZM200.72 156.637L200.401 157.316C201.606 157.881 202.801 158.453 203.987 159.034L204.317 158.36L204.647 157.686C203.453 157.102 202.25 156.526 201.038 155.958L200.72 156.637ZM207.858 160.131L207.517 160.798C208.69 161.398 209.854 162.007 211.006 162.624L211.36 161.963L211.714 161.301C210.553 160.68 209.381 160.067 208.199 159.463L207.858 160.131ZM214.858 163.882L214.491 164.536C215.641 165.183 216.779 165.84 217.905 166.507L218.287 165.861L218.669 165.216C217.533 164.543 216.386 163.881 215.226 163.229L214.858 163.882ZM221.664 167.917L221.267 168.553C222.393 169.257 223.505 169.972 224.604 170.7L225.018 170.074L225.432 169.449C224.322 168.714 223.199 167.992 222.062 167.281L221.664 167.917ZM228.286 172.304L227.855 172.917C228.933 173.675 229.996 174.445 231.042 175.229L231.492 174.628L231.941 174.027C230.882 173.235 229.807 172.456 228.718 171.69L228.286 172.304ZM234.641 177.063L234.173 177.649C235.2 178.469 236.209 179.304 237.202 180.153L237.689 179.583L238.177 179.013C237.172 178.153 236.149 177.307 235.109 176.477L234.641 177.063ZM240.656 182.214L240.148 182.766C241.118 183.658 242.069 184.565 243 185.489L243.528 184.957L244.056 184.424C243.111 183.487 242.147 182.566 241.163 181.662L240.656 182.214ZM246.284 187.799L245.735 188.31C246.63 189.27 247.504 190.247 248.357 191.241L248.926 190.753L249.495 190.264C248.629 189.254 247.741 188.262 246.833 187.287L246.284 187.799ZM251.444 193.817L250.854 194.281C251.665 195.312 252.454 196.362 253.221 197.43L253.83 196.993L254.44 196.556C253.66 195.469 252.858 194.402 252.033 193.354L251.444 193.817ZM256.059 200.25L255.431 200.66C256.145 201.755 256.836 202.869 257.504 204.003L258.15 203.623L258.796 203.242C258.117 202.088 257.414 200.954 256.687 199.84L256.059 200.25ZM260.091 207.099L259.428 207.45C260.032 208.591 260.613 209.752 261.17 210.934L261.848 210.613L262.527 210.293C261.959 209.092 261.369 207.91 260.754 206.749L260.091 207.099ZM263.464 214.248L262.772 214.537C263.275 215.744 263.756 216.97 264.212 218.217L264.916 217.96L265.621 217.702C265.157 216.434 264.668 215.186 264.156 213.959L263.464 214.248ZM266.181 221.663L265.467 221.891C265.862 223.135 266.235 224.398 266.583 225.683L267.307 225.486L268.031 225.289C267.677 223.985 267.298 222.701 266.896 221.436L266.181 221.663ZM268.277 229.371L267.545 229.537C267.828 230.779 268.09 232.04 268.33 233.319L269.067 233.18L269.805 233.042C269.561 231.744 269.295 230.465 269.008 229.204L268.277 229.371ZM269.727 237.102L268.985 237.212C269.181 238.529 269.356 239.865 269.507 241.22L270.252 241.137L270.998 241.054C270.844 239.68 270.668 238.326 270.469 236.991L269.727 237.102ZM270.616 244.97L269.869 245.028C269.969 246.315 270.051 247.618 270.112 248.939L270.861 248.904L271.61 248.869C271.548 247.533 271.466 246.214 271.364 244.911L270.616 244.97Z" fill="#7B1C19"/>
<rect width="20" height="20" fill="#7B1C19"/>
<path d="M10 8L12 10L10 12L8 10L10 8Z" fill="white"/>
<rect x="260" y="260" width="20" height="20" fill="#7B1C19"/>
<path d="M270 268L272 270L270 272L268 270L270 268Z" fill="white"/>
</svg>
