<svg width="240" height="200" viewBox="0 0 240 200" fill="none" xmlns="http://www.w3.org/2000/svg">
<path d="M230 175L234.268 167.465L225.608 167.536L230 175ZM10 10H9.25C9.25 10.7003 9.25667 11.3939 9.26995 12.0808L10.0198 12.0663L10.7697 12.0518C10.7566 11.3747 10.75 10.6908 10.75 10H10ZM10.177 16.0787L9.42831 16.1233C9.50715 17.4447 9.61185 18.7401 9.74187 20.0102L10.488 19.9338L11.2341 19.8574C11.1063 18.609 11.0033 17.3347 10.9256 16.034L10.177 16.0787ZM10.9869 23.8876L10.2453 23.9995C10.4485 25.3457 10.6819 26.6617 10.9448 27.9481L11.6796 27.7979L12.4145 27.6477C12.1568 26.3873 11.9279 25.0969 11.7285 23.7757L10.9869 23.8876ZM12.554 31.5561L11.8285 31.7462C12.1789 33.0836 12.5635 34.3869 12.9812 35.6571L13.6937 35.4228L14.4062 35.1885C13.9982 33.9481 13.6223 32.6743 13.2795 31.366L12.554 31.5561ZM15.029 39.0902L14.3329 39.3693C14.8388 40.6312 15.3799 41.8578 15.9551 43.0502L16.6306 42.7243L17.3061 42.3985C16.7459 41.2371 16.2185 40.0417 15.7252 38.8112L15.029 39.0902ZM18.4665 46.2128L17.8156 46.5853C18.4829 47.7514 19.1856 48.8819 19.9222 49.978L20.5447 49.5596L21.1672 49.1413C20.4506 48.075 19.7669 46.9751 19.1174 45.8403L18.4665 46.2128ZM22.8686 52.7603L22.278 53.2226C23.1014 54.2744 23.9588 55.2914 24.8486 56.2752L25.4049 55.772L25.9611 55.2689C25.0947 54.3111 24.2602 53.3213 23.4591 52.298L22.8686 52.7603ZM28.1573 58.6098L27.6372 59.1501C28.5966 60.0736 29.5873 60.9648 30.6077 61.8253L31.0912 61.2519L31.5747 60.6786C30.5787 59.8387 29.6125 58.9695 28.6774 58.0694L28.1573 58.6098ZM34.1841 63.6993L33.7368 64.3014C34.8048 65.0948 35.9005 65.8596 37.0224 66.5972L37.4344 65.9705L37.8464 65.3439C36.7476 64.6214 35.6755 63.8731 34.6314 63.0973L34.1841 63.6993ZM40.7751 68.0425L40.3963 68.6898C41.5452 69.3621 42.718 70.0097 43.9132 70.6341L44.2604 69.9693L44.6077 69.3046C43.4329 68.6909 42.2812 68.0548 41.1539 67.3951L40.7751 68.0425ZM47.7731 71.7081L47.4545 72.3871C48.6541 72.9498 49.8736 73.492 51.1118 74.0149L51.4035 73.3239L51.6953 72.633C50.4743 72.1174 49.2727 71.5831 48.0916 71.0291L47.7731 71.7081ZM55.0558 74.7909L54.7882 75.4916C56.019 75.9618 57.2662 76.4152 58.5287 76.853L58.7744 76.1444L59.0201 75.4357C57.7716 75.0028 56.5391 74.5547 55.3235 74.0903L55.0558 74.7909ZM62.5354 77.389L62.3095 78.1042C63.559 78.4988 64.8218 78.8799 66.0969 79.2485L66.3051 78.528L66.5134 77.8075C65.2494 77.4422 63.9985 77.0646 62.7614 76.6738L62.5354 77.389ZM70.1497 79.5924L69.9574 80.3174C71.218 80.6518 72.4893 80.9753 73.7705 81.289L73.9489 80.5606L74.1272 79.8321C72.8548 79.5205 71.5928 79.1993 70.342 78.8675L70.1497 79.5924ZM77.8087 81.4701L77.6428 82.2015C78.9254 82.4925 80.2169 82.7747 81.5162 83.0493L81.6712 82.3155L81.8262 81.5816C80.5337 81.3086 79.2496 81.0279 77.9746 80.7387L77.8087 81.4701ZM85.5367 83.1056L85.3912 83.8413C86.6899 84.0983 87.9955 84.3485 89.3071 84.5929L89.4445 83.8556L89.5819 83.1183C88.2753 82.8748 86.9752 82.6256 85.6823 82.3698L85.5367 83.1056ZM93.3142 84.5574L93.1837 85.2959C94.4812 85.5252 95.7837 85.7497 97.0906 85.9701L97.2153 85.2306L97.3401 84.491C96.0367 84.2712 94.738 84.0474 93.4447 83.8188L93.3142 84.5574ZM101.121 85.8765L101.001 86.6168C102.299 86.8274 103.599 87.0348 104.903 87.2399L105.02 86.499L105.136 85.7582C103.835 85.5534 102.536 85.3463 101.242 85.1362L101.121 85.8765ZM108.935 87.1079L108.821 87.8492C110.121 88.0494 111.424 88.2481 112.728 88.446L112.841 87.7045L112.953 86.963C111.65 86.7651 110.348 86.5666 109.049 86.3666L108.935 87.1079ZM116.75 88.296L116.638 89.0376C117.942 89.2346 119.246 89.4316 120.55 89.6294L120.662 88.8879L120.775 88.1464C119.47 87.9485 118.166 87.7514 116.862 87.5545L116.75 88.296ZM124.572 89.4845L124.459 90.2258C125.761 90.4259 127.062 90.6276 128.361 90.8316L128.478 90.0906L128.594 89.3497C127.293 89.1454 125.99 88.9435 124.686 88.7432L124.572 89.4845ZM132.386 90.7129L132.266 91.4533C133.569 91.664 134.869 91.8778 136.166 92.0955L136.29 91.3559L136.414 90.6162C135.114 90.3979 133.811 90.1836 132.505 89.9725L132.386 90.7129ZM140.176 92.0225L140.047 92.7612C141.351 92.99 142.65 93.2236 143.945 93.4628L144.082 92.7253L144.218 91.9878C142.918 91.7477 141.614 91.5133 140.306 91.2838L140.176 92.0225ZM147.963 93.4627L147.819 94.1987C149.112 94.4516 150.4 94.711 151.681 94.9777L151.834 94.2434L151.987 93.5091C150.699 93.2412 149.406 92.9806 148.107 92.7266L147.963 93.4627ZM155.712 95.0785L155.549 95.8105C156.831 96.0962 158.106 96.3901 159.373 96.6932L159.547 95.9638L159.722 95.2344C158.447 94.9294 157.165 94.6337 155.875 94.3464L155.712 95.0785ZM163.4 96.922L163.213 97.6481C164.49 97.9781 165.758 98.3186 167.015 98.6704L167.217 97.9482L167.419 97.2259C166.152 96.8712 164.874 96.5282 163.588 96.1958L163.4 96.922ZM171.001 99.0521L170.783 99.7697C172.051 100.155 173.308 100.554 174.551 100.967L174.787 100.255L175.023 99.5429C173.767 99.1262 172.499 98.7238 171.219 98.3346L171.001 99.0521ZM178.497 101.542L178.241 102.247C179.488 102.699 180.721 103.167 181.938 103.652L182.215 102.955L182.493 102.258C181.261 101.768 180.014 101.294 178.753 100.837L178.497 101.542ZM185.855 104.475L185.554 105.162C186.76 105.69 187.948 106.237 189.119 106.803L189.445 106.128L189.772 105.453C188.584 104.878 187.378 104.324 186.156 103.788L185.855 104.475ZM192.974 107.924L192.619 108.585C193.773 109.203 194.906 109.842 196.018 110.503L196.401 109.858L196.785 109.214C195.653 108.54 194.5 107.891 193.328 107.263L192.974 107.924ZM199.76 111.968L199.346 112.593C200.433 113.313 201.496 114.058 202.535 114.829L202.982 114.227L203.429 113.624C202.368 112.837 201.283 112.077 200.175 111.343L199.76 111.968ZM206.097 116.674L205.617 117.25C206.618 118.084 207.594 118.946 208.543 119.836L209.056 119.29L209.569 118.743C208.599 117.831 207.601 116.95 206.577 116.097L206.097 116.674ZM211.846 122.075L211.299 122.589C212.19 123.535 213.052 124.512 213.886 125.519L214.464 125.041L215.042 124.564C214.188 123.531 213.304 122.53 212.392 121.561L211.846 122.075ZM216.874 128.156L216.266 128.596C217.022 129.641 217.75 130.718 218.447 131.827L219.082 131.428L219.717 131.029C219.002 129.892 218.257 128.788 217.482 127.717L216.874 128.156ZM221.083 134.85L220.424 135.208C221.032 136.328 221.611 137.48 222.162 138.663L222.842 138.347L223.522 138.031C222.958 136.819 222.365 135.64 221.742 134.492L221.083 134.85ZM224.423 142.035L223.725 142.31C224.186 143.483 224.621 144.685 225.028 145.917L225.74 145.682L226.452 145.446C226.037 144.188 225.592 142.96 225.121 141.761L224.423 142.035ZM226.883 149.481L226.159 149.678C226.498 150.924 226.811 152.199 227.097 153.503L227.829 153.343L228.562 153.183C228.271 151.854 227.953 150.555 227.607 149.284L226.883 149.481ZM228.572 157.153L227.833 157.28C228.053 158.565 228.249 159.878 228.42 161.219L229.164 161.124L229.908 161.03C229.735 159.668 229.535 158.334 229.311 157.026L228.572 157.153ZM229.581 165.031L228.834 165.096C228.944 166.358 229.032 167.642 229.099 168.951L229.848 168.912L230.597 168.874C230.53 167.548 230.44 166.246 230.328 164.966L229.581 165.031Z" fill="#7B1C19"/>
<rect width="20" height="20" fill="#7B1C19"/>
<path d="M10 8L12 10L10 12L8 10L10 8Z" fill="white"/>
<rect x="220" y="180" width="20" height="20" fill="#7B1C19"/>
<path d="M230 188L232 190L230 192L228 190L230 188Z" fill="white"/>
</svg>
