<svg width="269" height="70" viewBox="0 0 269 70" fill="none" xmlns="http://www.w3.org/2000/svg">
<path fill-rule="evenodd" clip-rule="evenodd" d="M35.2326 0H0V35V70H35.2326L26.6367 61.5151H26.5305L0 35L26.5305 8.48485L35.2326 0ZM61.5509 0L26.5305 35L61.5509 70H69.9442V0H61.5509Z" fill="white"/>
<path d="M97.5471 49.5V22.5H114.971V26.7375H102.062V33.3937H112.723V37.6312H102.062V45.2625H114.971V49.5H97.5471Z" fill="#A3A3A3"/>
<path d="M130.332 50.0625C128.184 50.0625 126.291 49.625 124.655 48.75C123.032 47.875 121.758 46.6438 120.833 45.0563C119.922 43.4688 119.466 41.6063 119.466 39.4688V22.5375L124.037 22.5V39.3563C124.037 40.3688 124.206 41.275 124.543 42.075C124.893 42.875 125.361 43.5563 125.948 44.1188C126.535 44.6688 127.209 45.0875 127.971 45.375C128.733 45.6625 129.52 45.8063 130.332 45.8063C131.169 45.8063 131.962 45.6625 132.711 45.375C133.473 45.075 134.148 44.65 134.735 44.1C135.322 43.5375 135.784 42.8563 136.121 42.0563C136.458 41.2563 136.627 40.3563 136.627 39.3563V22.5H141.198V39.4688C141.198 41.6063 140.736 43.4688 139.812 45.0563C138.9 46.6438 137.626 47.875 135.99 48.75C134.366 49.625 132.48 50.0625 130.332 50.0625Z" fill="#A3A3A3"/>
<path d="M146.434 49.5V22.5H157.581C157.844 22.5 158.181 22.5125 158.593 22.5375C159.005 22.55 159.386 22.5875 159.736 22.65C161.297 22.8875 162.583 23.4062 163.595 24.2062C164.619 25.0062 165.375 26.0187 165.862 27.2437C166.362 28.4562 166.612 29.8062 166.612 31.2937C166.612 33.4938 166.056 35.3875 164.944 36.975C163.832 38.55 162.128 39.525 159.829 39.9L157.9 40.0687H150.949V49.5H146.434ZM161.928 49.5L156.607 38.5125L161.197 37.5L167.042 49.5H161.928ZM150.949 35.85H157.394C157.644 35.85 157.925 35.8375 158.237 35.8125C158.549 35.7875 158.836 35.7375 159.099 35.6625C159.848 35.475 160.435 35.1437 160.86 34.6688C161.297 34.1937 161.603 33.6562 161.778 33.0562C161.965 32.4562 162.059 31.8687 162.059 31.2937C162.059 30.7187 161.965 30.1312 161.778 29.5312C161.603 28.9187 161.297 28.375 160.86 27.9C160.435 27.425 159.848 27.0938 159.099 26.9062C158.836 26.8312 158.549 26.7875 158.237 26.775C157.925 26.75 157.644 26.7375 157.394 26.7375H150.949V35.85Z" fill="#A3A3A3"/>
<path d="M182.58 50.0625C179.882 50.0625 177.571 49.475 175.648 48.3C173.724 47.1125 172.244 45.4625 171.207 43.35C170.183 41.2375 169.671 38.7875 169.671 36C169.671 33.2125 170.183 30.7625 171.207 28.65C172.244 26.5375 173.724 24.8937 175.648 23.7187C177.571 22.5312 179.882 21.9375 182.58 21.9375C185.277 21.9375 187.588 22.5312 189.512 23.7187C191.448 24.8937 192.928 26.5375 193.952 28.65C194.988 30.7625 195.507 33.2125 195.507 36C195.507 38.7875 194.988 41.2375 193.952 43.35C192.928 45.4625 191.448 47.1125 189.512 48.3C187.588 49.475 185.277 50.0625 182.58 50.0625ZM182.58 45.8063C184.391 45.8188 185.896 45.4188 187.095 44.6063C188.306 43.7938 189.212 42.65 189.811 41.175C190.423 39.7 190.729 37.975 190.729 36C190.729 34.025 190.423 32.3125 189.811 30.8625C189.212 29.4 188.306 28.2625 187.095 27.45C185.896 26.6375 184.391 26.2187 182.58 26.1937C180.769 26.1812 179.264 26.5812 178.064 27.3937C176.865 28.2062 175.96 29.35 175.348 30.825C174.748 32.3 174.449 34.025 174.449 36C174.449 37.975 174.748 39.6937 175.348 41.1562C175.947 42.6063 176.847 43.7375 178.046 44.55C179.257 45.3625 180.769 45.7812 182.58 45.8063Z" fill="#A3A3A3"/>
<path d="M199.236 49.5V22.5H203.751V35.025L214.524 22.5H220.069L208.472 35.7375L220.856 49.5H215.123L203.751 36.9V49.5H199.236Z" fill="white"/>
<path d="M221.623 49.5L230.129 22.5H236.742L245.248 49.5H240.601L232.883 25.275H233.894L226.269 49.5H221.623ZM226.363 43.65V39.4313H240.527V43.65H226.363Z" fill="white"/>
<path d="M247.886 49.5V48.8812L261.187 26.7375H248.822V22.5H269V23.1375L255.773 45.2438H268.681V49.5H247.886Z" fill="white"/>
</svg>
