<svg width="84" height="33" viewBox="0 0 84 33" fill="none" xmlns="http://www.w3.org/2000/svg">
<path d="M0 16.9093L2.70438 0.5H13.3248L12.9088 2.98893H5.24453L4.51095 7.44918H11.6168L11.2117 9.94912H4.10584L3.37226 14.4204H11.0803L10.6752 16.9093H0Z" fill="#080404"/>
<path d="M21.3285 11.7442L22.5109 4.59682H25.3905L23.354 16.9093H20.562L20.9234 14.7177H20.792C20.4124 15.4079 19.8686 15.9732 19.1606 16.4137C18.4599 16.8543 17.646 17.0708 16.719 17.0635C15.9234 17.0635 15.2482 16.8873 14.6934 16.5349C14.1387 16.1751 13.7445 15.6502 13.5109 14.96C13.2774 14.2625 13.2409 13.4219 13.4015 12.4381L14.7044 4.59682H17.5949L16.3796 11.9975C16.2555 12.7684 16.365 13.3852 16.708 13.8477C17.0584 14.3103 17.5766 14.5379 18.2628 14.5305C18.6934 14.5305 19.1241 14.4277 19.5547 14.2222C19.9854 14.0166 20.3613 13.7082 20.6825 13.2971C21.011 12.8859 21.2263 12.3683 21.3285 11.7442Z" fill="#080404"/>
<path d="M25.4672 16.9093L27.5037 4.59682H30.3066L29.9562 6.66726H30.0876C30.4307 5.94775 30.9088 5.39343 31.5219 5.0043C32.135 4.61518 32.792 4.42429 33.4927 4.43163C33.6533 4.42429 33.8285 4.42796 34.0182 4.44264C34.208 4.45732 34.3759 4.47935 34.5219 4.50872L34.062 7.17386C33.9453 7.1298 33.7555 7.09309 33.4927 7.06373C33.2372 7.02702 32.9891 7.01233 32.7482 7.01967C32.2226 7.01233 31.7336 7.12246 31.281 7.35006C30.8285 7.57766 30.4489 7.89337 30.1423 8.29718C29.8358 8.69364 29.635 9.15619 29.5401 9.68481L28.3577 16.9093H25.4672Z" fill="#080404"/>
<path d="M38.4307 17.1516C37.219 17.1516 36.2117 16.8836 35.4088 16.3477C34.6131 15.8117 34.0547 15.0628 33.7336 14.101C33.4124 13.1392 33.354 12.0159 33.5584 10.731C33.7628 9.46822 34.1752 8.36693 34.7956 7.42715C35.4234 6.48738 36.2117 5.75686 37.1606 5.23557C38.1168 4.70695 39.1861 4.44264 40.3686 4.44264C41.573 4.44264 42.573 4.71062 43.3686 5.24659C44.1642 5.78255 44.7263 6.5351 45.0547 7.50424C45.3832 8.46604 45.4416 9.58937 45.2299 10.8742C45.0328 12.1297 44.6204 13.231 43.9927 14.1781C43.365 15.1179 42.573 15.8484 41.6168 16.3697C40.6679 16.891 39.6058 17.1516 38.4307 17.1516ZM38.6606 14.8389C39.3321 14.8315 39.9197 14.6443 40.4234 14.2772C40.927 13.9101 41.3431 13.4182 41.6715 12.8015C42 12.1774 42.2226 11.4836 42.3394 10.72C42.4635 9.97849 42.4672 9.31037 42.3504 8.71567C42.2409 8.11363 42.0037 7.6364 41.6387 7.28399C41.2737 6.92423 40.7701 6.74435 40.1277 6.74435C39.4635 6.74435 38.8759 6.93157 38.365 7.30601C37.854 7.67311 37.4343 8.16869 37.1058 8.79276C36.7847 9.40949 36.5657 10.1033 36.4489 10.8742C36.3248 11.6084 36.3175 12.2765 36.427 12.8786C36.5365 13.4733 36.7737 13.9468 37.1387 14.2992C37.5109 14.6517 38.0183 14.8315 38.6606 14.8389Z" fill="#080404"/>
<path d="M45.9635 16.9093L48.6679 0.5H51.6241L50.3869 8.04388H50.5949L58.1934 0.5H61.8066L54.2956 7.86767L59.146 16.9093H55.5985L51.9197 9.88305L49.7409 12.0416L48.9307 16.9093H45.9635Z" fill="#080404"/>
<path d="M63.6788 17.1626C62.9051 17.1553 62.2299 17.0121 61.6533 16.7331C61.0839 16.4541 60.6642 16.0393 60.3942 15.4886C60.1241 14.9307 60.0511 14.2515 60.1752 13.4512C60.292 12.7611 60.5146 12.1884 60.8431 11.7332C61.1788 11.278 61.5912 10.9146 62.0803 10.6429C62.5693 10.3713 63.0985 10.1657 63.6679 10.0262C64.2445 9.88672 64.8358 9.78393 65.4416 9.71785C66.1715 9.63709 66.7628 9.56734 67.2153 9.50861C67.6679 9.44253 68.0073 9.34708 68.2336 9.22227C68.4671 9.09011 68.6095 8.88454 68.6606 8.60554V8.55048C68.7555 7.95578 68.6569 7.49323 68.365 7.16284C68.0803 6.83245 67.6022 6.66726 66.9307 6.66726C66.2372 6.66726 65.6496 6.82144 65.1679 7.1298C64.6934 7.43817 64.3431 7.80159 64.1168 8.22009L61.5219 7.83463C61.8504 7.08575 62.2993 6.46168 62.8686 5.96243C63.4453 5.45583 64.1059 5.07772 64.8504 4.82809C65.6022 4.57113 66.4051 4.44264 67.2591 4.44264C67.8431 4.44264 68.4124 4.51239 68.9672 4.65189C69.5292 4.78404 70.0256 5.01164 70.4562 5.33469C70.8942 5.65774 71.2153 6.09091 71.4197 6.63422C71.6241 7.17753 71.6569 7.85666 71.5182 8.67162L70.1496 16.9093H67.4015L67.6861 15.2133H67.5876C67.354 15.5511 67.0547 15.8704 66.6898 16.1714C66.3248 16.4651 65.8905 16.7037 65.3869 16.8873C64.8905 17.0635 64.3212 17.1553 63.6788 17.1626ZM64.7628 15.0261C65.3467 15.0261 65.8686 14.9123 66.3285 14.6847C66.7883 14.4498 67.1679 14.1414 67.4672 13.7596C67.7664 13.3705 67.9526 12.9483 68.0256 12.4931L68.2555 11.0504C68.1533 11.1238 67.9891 11.1936 67.7628 11.2597C67.5438 11.3184 67.2956 11.3735 67.0182 11.4249C66.7409 11.4689 66.4672 11.5093 66.1971 11.546C65.9343 11.5827 65.708 11.6158 65.5182 11.6451C65.0803 11.7039 64.6788 11.803 64.3139 11.9425C63.9562 12.0746 63.6569 12.2582 63.4161 12.4931C63.1825 12.7281 63.0365 13.0328 62.9781 13.4072C62.8905 13.9358 63.0146 14.3396 63.3504 14.6186C63.6934 14.8903 64.1642 15.0261 64.7628 15.0261Z" fill="#080404"/>
<path d="M72.1204 16.9093L72.427 15.0702L80.0365 7.10778L80.0693 6.99765H73.9599L74.365 4.59682H84L83.6715 6.59017L76.3905 14.3984L76.3577 14.5085H82.5657L82.1825 16.9093H72.1204Z" fill="#080404"/>
<path d="M26.1496 30.0661L27.4964 21.8615H28.7281L27.5511 29.0034H31.2409L31.0712 30.0661H26.1496Z" fill="#080404"/>
<path d="M34.5146 30.1928C33.9307 30.1891 33.4434 30.0533 33.0529 29.7853C32.6661 29.5173 32.3923 29.1429 32.2318 28.662C32.0748 28.1774 32.0474 27.6139 32.1496 26.9715C32.2518 26.3401 32.4562 25.7894 32.7628 25.3196C33.0693 24.8497 33.4544 24.4844 33.9179 24.2238C34.3814 23.9631 34.896 23.8328 35.4617 23.8328C36.0456 23.8328 36.531 23.9686 36.9179 24.2403C37.3047 24.5083 37.5785 24.8845 37.7391 25.3691C37.8996 25.8537 37.927 26.419 37.8212 27.0651C37.7226 27.6928 37.5182 28.2417 37.208 28.7115C36.9015 29.1778 36.5164 29.5412 36.0529 29.8018C35.5931 30.0588 35.0803 30.1891 34.5146 30.1928ZM34.5803 29.1906C34.9635 29.1869 35.2974 29.0841 35.5821 28.8822C35.8668 28.6803 36.0985 28.4124 36.2774 28.0783C36.4599 27.7406 36.5821 27.3698 36.6442 26.966C36.7099 26.5805 36.7099 26.2263 36.6442 25.9032C36.5821 25.5802 36.4489 25.3214 36.2445 25.1268C36.0401 24.9286 35.7555 24.8313 35.3905 24.835C35.0109 24.8313 34.677 24.9323 34.3887 25.1378C34.104 25.3434 33.8704 25.6151 33.688 25.9528C33.5091 26.2905 33.3887 26.6613 33.3266 27.0651C33.261 27.4469 33.2591 27.7993 33.3212 28.1223C33.3832 28.4454 33.5164 28.7042 33.7208 28.8988C33.9288 29.0897 34.2153 29.1869 34.5803 29.1906Z" fill="#080404"/>
<path d="M40.3668 32.5C39.8741 32.5 39.4635 32.4358 39.135 32.3073C38.8066 32.1825 38.5493 32.0136 38.3631 31.8007C38.177 31.5878 38.0493 31.3565 37.9799 31.1069L39.0803 30.6829C39.1314 30.8003 39.2044 30.9251 39.2993 31.0573C39.3942 31.1895 39.5365 31.3014 39.7263 31.3932C39.9161 31.485 40.1788 31.5309 40.5146 31.5309C40.9635 31.5345 41.3558 31.4262 41.6916 31.206C42.031 30.9857 42.2391 30.6351 42.3157 30.1542L42.5073 28.9483H42.4252C42.3376 29.0768 42.2135 29.2218 42.0529 29.3833C41.8923 29.5449 41.6861 29.6844 41.4343 29.8018C41.1861 29.9156 40.8741 29.9725 40.4982 29.9725C40.0164 29.9725 39.6004 29.8587 39.25 29.6311C38.8996 29.4035 38.6496 29.0658 38.5 28.6179C38.3504 28.1701 38.3285 27.6194 38.4343 26.966C38.5401 26.3125 38.7427 25.7527 39.042 25.2865C39.3412 24.8166 39.7044 24.4569 40.1314 24.2072C40.562 23.9576 41.0237 23.8328 41.5164 23.8328C41.896 23.8328 42.1916 23.897 42.4033 24.0255C42.615 24.1503 42.7719 24.2972 42.8741 24.466C42.9799 24.6349 43.0584 24.7836 43.1095 24.9121H43.1971L43.3558 23.9099H44.5219L43.4818 30.2038C43.3978 30.7324 43.2062 31.1656 42.9069 31.5033C42.6077 31.8411 42.2372 32.0907 41.7956 32.2522C41.3577 32.4174 40.8814 32.5 40.3668 32.5ZM40.9033 28.9759C41.2427 28.9759 41.5456 28.8951 41.812 28.7336C42.0821 28.572 42.3047 28.3408 42.4799 28.0398C42.6588 27.7351 42.7847 27.3716 42.8577 26.9495C42.9234 26.5346 42.9179 26.1712 42.8412 25.8592C42.7646 25.5435 42.6186 25.2975 42.4033 25.1213C42.1916 24.9414 41.9142 24.8515 41.5712 24.8515C41.2135 24.8515 40.9015 24.9451 40.635 25.1323C40.3686 25.3159 40.1515 25.5673 39.9836 25.8867C39.8193 26.2024 39.7044 26.5567 39.6387 26.9495C39.5766 27.3496 39.5785 27.7039 39.6442 28.0122C39.7099 28.3169 39.8467 28.5537 40.0547 28.7226C40.2664 28.8914 40.5493 28.9759 40.9033 28.9759Z" fill="#080404"/>
<path d="M44.6314 30.0661L45.6496 23.9099H46.8431L45.8248 30.0661H44.6314ZM46.4927 22.9518C46.2883 22.9554 46.115 22.8875 45.9726 22.748C45.8339 22.6049 45.7683 22.436 45.7756 22.2414C45.7865 22.0432 45.8686 21.8743 46.0219 21.7348C46.1752 21.5953 46.354 21.5256 46.5584 21.5256C46.7664 21.5256 46.9398 21.5953 47.0785 21.7348C47.2208 21.8743 47.2901 22.0432 47.2865 22.2414C47.2719 22.436 47.188 22.6049 47.0347 22.748C46.8814 22.8875 46.7007 22.9554 46.4927 22.9518Z" fill="#080404"/>
<path d="M52.3011 25.4187L51.2007 25.6059C51.1752 25.4664 51.1241 25.3342 51.0475 25.2094C50.9745 25.0846 50.8631 24.9818 50.7135 24.9011C50.5675 24.8203 50.3704 24.7799 50.1223 24.7799C49.7828 24.7836 49.4854 24.8643 49.2299 25.0222C48.9745 25.1801 48.8285 25.3783 48.792 25.6169C48.7555 25.8188 48.8011 25.9803 48.9288 26.1015C49.0566 26.2189 49.2792 26.3199 49.5967 26.4043L50.5383 26.6246C51.0821 26.7567 51.4708 26.9605 51.7044 27.2358C51.9416 27.5111 52.0237 27.8691 51.9507 28.3096C51.8887 28.6767 51.7299 29.0016 51.4745 29.2842C51.219 29.5669 50.8905 29.789 50.4891 29.9505C50.0912 30.1084 49.6478 30.1891 49.1588 30.1928C48.4653 30.1891 47.9252 30.0404 47.5383 29.7468C47.1515 29.4494 46.9526 29.0309 46.9416 28.4913L48.1241 28.3151C48.1423 28.6161 48.2482 28.8437 48.4416 28.9979C48.635 29.1484 48.9051 29.2255 49.2518 29.2292C49.6533 29.2292 49.9872 29.1447 50.2537 28.9759C50.5237 28.8033 50.677 28.5959 50.7135 28.3536C50.7464 28.1627 50.7044 28.0049 50.5876 27.8801C50.4745 27.7552 50.2737 27.658 49.9854 27.5882L48.9945 27.3569C48.4398 27.2285 48.0493 27.0192 47.823 26.7292C47.5967 26.4392 47.5201 26.0739 47.5931 25.6334C47.6551 25.2737 47.8066 24.9598 48.0474 24.6918C48.292 24.4202 48.6022 24.2091 48.9781 24.0586C49.354 23.9081 49.7701 23.8328 50.2263 23.8328C50.8978 23.8328 51.3996 23.976 51.7318 24.2623C52.0675 24.5486 52.2573 24.9341 52.3011 25.4187Z" fill="#080404"/>
<path d="M56.3577 23.9099L56.1989 24.8735H52.8595L53.0182 23.9099H56.3577ZM54.1515 22.4452H55.3449L54.3759 28.26C54.3394 28.4876 54.3449 28.662 54.3923 28.7831C54.4434 28.9006 54.5219 28.9795 54.6277 29.0199C54.7336 29.0566 54.8522 29.075 54.9836 29.075C55.0821 29.0786 55.1661 29.075 55.2354 29.064C55.3084 29.0493 55.365 29.0383 55.4051 29.0309L55.4708 30.0221C55.3905 30.0478 55.2829 30.0753 55.1478 30.1047C55.0128 30.1341 54.8504 30.1469 54.6606 30.1432C54.3467 30.1506 54.0639 30.0955 53.812 29.978C53.5602 29.8606 53.3723 29.6788 53.2482 29.4329C53.1241 29.1833 53.0931 28.8731 53.1551 28.5023L54.1515 22.4452Z" fill="#080404"/>
<path d="M56.1825 30.0661L57.2007 23.9099H58.3942L57.3759 30.0661H56.1825ZM58.0438 22.9518C57.8394 22.9554 57.6661 22.8875 57.5237 22.748C57.385 22.6049 57.3193 22.436 57.3266 22.2414C57.3376 22.0432 57.4197 21.8743 57.573 21.7348C57.7263 21.5953 57.9051 21.5256 58.1095 21.5256C58.3175 21.5256 58.4909 21.5953 58.6296 21.7348C58.7719 21.8743 58.8412 22.0432 58.8376 22.2414C58.823 22.436 58.7391 22.6049 58.5858 22.748C58.4325 22.8875 58.2518 22.9554 58.0438 22.9518Z" fill="#080404"/>
<path d="M61.0602 30.1928C60.469 30.1891 59.9818 30.0533 59.5985 29.7853C59.219 29.5137 58.9544 29.1392 58.8047 28.662C58.6551 28.1848 58.6314 27.6378 58.7336 27.0211C58.8358 26.3933 59.0438 25.8408 59.3577 25.3636C59.6715 24.8827 60.0639 24.5083 60.5347 24.2403C61.0055 23.9686 61.5274 23.8328 62.1004 23.8328C62.7938 23.8328 63.3394 24.0219 63.7372 24.4C64.1387 24.7781 64.3212 25.2792 64.2847 25.9032H63.1241C63.1058 25.6132 63 25.3654 62.8066 25.1599C62.6131 24.9506 62.3266 24.8442 61.9471 24.8405C61.6186 24.8405 61.3139 24.9286 61.0328 25.1048C60.7518 25.281 60.5164 25.5306 60.3266 25.8537C60.1369 26.1731 60.0073 26.553 59.938 26.9935C59.8613 27.4377 59.865 27.8232 59.9489 28.1499C60.0329 28.4766 60.1843 28.7299 60.4033 28.9098C60.6259 29.086 60.9051 29.1759 61.2409 29.1796C61.4672 29.1759 61.6788 29.1319 61.8759 29.0474C62.073 28.963 62.2464 28.8419 62.396 28.684C62.5493 28.5262 62.6697 28.3371 62.7573 28.1168H63.9179C63.8047 28.517 63.615 28.8731 63.3485 29.1851C63.0821 29.4971 62.7537 29.7431 62.3631 29.923C61.9763 30.0992 61.542 30.1891 61.0602 30.1928Z" fill="#080404"/>
<path d="M69.7537 25.4187L68.6533 25.6059C68.6277 25.4664 68.5766 25.3342 68.5 25.2094C68.427 25.0846 68.3157 24.9818 68.1661 24.9011C68.0201 24.8203 67.823 24.7799 67.5748 24.7799C67.2354 24.7836 66.938 24.8643 66.6825 25.0222C66.427 25.1801 66.281 25.3783 66.2445 25.6169C66.208 25.8188 66.2537 25.9803 66.3814 26.1015C66.5091 26.2189 66.7318 26.3199 67.0493 26.4043L67.9909 26.6246C68.5347 26.7567 68.9234 26.9605 69.1569 27.2358C69.3942 27.5111 69.4763 27.8691 69.4033 28.3096C69.3412 28.6767 69.1825 29.0016 68.927 29.2842C68.6715 29.5669 68.3431 29.789 67.9416 29.9505C67.5438 30.1084 67.1004 30.1891 66.6113 30.1928C65.9179 30.1891 65.3777 30.0404 64.9909 29.7468C64.604 29.4494 64.4051 29.0309 64.3942 28.4913L65.5766 28.3151C65.5949 28.6161 65.7007 28.8437 65.8942 28.9979C66.0876 29.1484 66.3577 29.2255 66.7044 29.2292C67.1058 29.2292 67.4398 29.1447 67.7062 28.9759C67.9763 28.8033 68.1296 28.5959 68.1661 28.3536C68.1989 28.1627 68.1569 28.0049 68.0401 27.8801C67.927 27.7552 67.7263 27.658 67.438 27.5882L66.4471 27.3569C65.8923 27.2285 65.5018 27.0192 65.2756 26.7292C65.0493 26.4392 64.9726 26.0739 65.0456 25.6334C65.1077 25.2737 65.2591 24.9598 65.5 24.6918C65.7445 24.4202 66.0547 24.2091 66.4307 24.0586C66.8066 23.9081 67.2226 23.8328 67.6788 23.8328C68.3504 23.8328 68.8522 23.976 69.1843 24.2623C69.5201 24.5486 69.7099 24.9341 69.7537 25.4187Z" fill="#080404"/>
<path d="M0.736534 23.798C0.803384 23.6118 0.979093 23.4877 1.17592 23.4877H23.6251C23.8697 23.4877 24.0401 23.7319 23.957 23.9632C23.4521 25.3697 22.1248 26.307 20.6381 26.307H0.501138C0.177392 26.307 -0.0482019 25.9838 0.0617568 25.6776L0.736534 23.798Z" fill="#080404"/>
</svg>
