<svg width="44" height="44" viewBox="0 0 44 44" fill="none" xmlns="http://www.w3.org/2000/svg">
<path fill-rule="evenodd" clip-rule="evenodd" d="M21.9935 0.5C23.6922 0.5 25.326 1.161 26.5567 2.34602C27.7874 3.53112 28.5213 5.14987 28.6062 6.867L28.6305 7.35563L29.0628 7.57432C32.1574 9.13958 34.6686 11.6767 36.2208 14.8062L36.4469 15.2627L36.9508 15.2682C38.6944 15.2872 40.36 16.0017 41.5861 17.2565C42.7357 18.433 43.412 19.9951 43.4919 21.6401L43.5 21.97C43.4968 23.7277 42.8113 25.4138 41.5915 26.665C40.3713 27.9165 38.7142 28.6328 36.9772 28.6588L36.4728 28.6659L36.2488 29.1239C34.6998 32.2858 32.1733 34.8497 29.0536 36.4257L28.6208 36.6438L28.5965 37.133C28.5117 38.8501 27.7782 40.4689 26.5475 41.654C25.3168 42.8391 23.6831 43.5 21.9844 43.5C20.2857 43.5 18.6519 42.8391 17.4212 41.654C16.1906 40.4689 15.4571 38.8501 15.3722 37.133L15.348 36.6438L14.9152 36.4257L14.6245 36.2746C11.6387 34.6884 9.22112 32.1869 7.72051 29.1239L7.49709 28.6675L6.99426 28.6588L6.67017 28.6446C5.0541 28.5352 3.52927 27.8285 2.3902 26.6524C1.17534 25.398 0.496538 23.7101 0.500013 21.9536C0.503541 20.1972 1.18922 18.5125 2.40904 17.2631C3.62893 16.0136 5.28524 15.2993 7.02064 15.2753L7.52294 15.2687L7.74851 14.8139C9.30403 11.679 11.8215 9.13882 14.9238 7.57487L15.3572 7.35672L15.3814 6.867C15.4663 5.14991 16.1998 3.53111 17.4304 2.34602C18.661 1.16096 20.2949 0.50006 21.9935 0.5ZM23.726 32.822C22.8945 32.4733 21.9793 32.3825 21.0966 32.5602C20.2141 32.738 19.403 33.1768 18.7666 33.8211C18.1303 34.4653 17.697 35.2861 17.5214 36.1797C17.3458 37.0735 17.4359 38.0002 17.7803 38.8421C18.1248 39.6841 18.7079 40.4039 19.4562 40.9101C20.2046 41.4163 21.0845 41.6861 21.9844 41.6862C23.1911 41.6862 24.3487 41.2009 25.2022 40.337C26.0556 39.473 26.5351 38.3011 26.5352 37.079C26.5352 36.1677 26.2681 35.2768 25.768 34.5191C25.2679 33.7615 24.5574 33.1707 23.726 32.822ZM27.7346 10.1642C27.17 11.2083 26.3382 12.0795 25.3265 12.6865C24.3149 13.2934 23.1604 13.6136 21.9844 13.6136C20.8083 13.6135 19.6539 13.2934 18.6422 12.6865C17.6306 12.0795 16.7988 11.2083 16.2342 10.1642L15.8282 9.41271L15.0955 9.84081C12.9812 11.0764 11.2241 12.8519 9.9994 14.99L9.57463 15.7312L10.316 16.1445C11.3463 16.7187 12.2054 17.5627 12.8026 18.5883C13.3999 19.6138 13.7134 20.7834 13.7109 21.9738C13.7083 23.1642 13.3897 24.3321 12.7881 25.355C12.1865 26.3779 11.324 27.2182 10.2912 27.7878L9.54879 28.1974L9.96925 28.9402C11.1945 31.1035 12.9629 32.9007 15.095 34.1494L15.8277 34.5786L16.2342 33.8265C16.7988 32.7824 17.6306 31.9112 18.6422 31.3043C19.6539 30.6973 20.8083 30.3766 21.9844 30.3766C23.1605 30.3766 24.3148 30.6973 25.3265 31.3043C26.3382 31.9112 27.17 32.7824 27.7346 33.8265L28.1411 34.5786L28.8738 34.1494C31.0059 32.9007 32.7743 31.1035 33.9995 28.9402L34.4205 28.1974L33.6776 27.7878C32.6449 27.2182 31.7823 26.3779 31.1807 25.355C30.5791 24.3321 30.2605 23.1642 30.2579 21.9738C30.2554 20.7834 30.5694 19.6138 31.1667 18.5883C31.7639 17.5628 32.6226 16.7187 33.6528 16.1445L34.3942 15.7312L33.9694 14.99C32.7447 12.8519 30.9876 11.0764 28.8733 9.84081L28.1411 9.41271L27.7346 10.1642ZM7.97731 17.4512C7.09468 17.2735 6.17941 17.3643 5.34796 17.713C4.51657 18.0616 3.80601 18.6525 3.30595 19.4101C2.8059 20.1678 2.53879 21.0587 2.53879 21.97C2.53883 23.192 3.01837 24.364 3.87177 25.2279C4.72522 26.0919 5.88282 26.5771 7.08955 26.5772C7.98945 26.5771 8.86938 26.3073 9.6177 25.8011C10.366 25.2949 10.9491 24.5751 11.2936 23.7331C11.6381 22.8912 11.7282 21.9646 11.5526 21.0707C11.3769 20.1769 10.9438 19.3558 10.3073 18.7115C9.67093 18.0672 8.85989 17.629 7.97731 17.4512ZM38.6208 17.7113C37.7894 17.3627 36.8741 17.2713 35.9915 17.449C35.109 17.6268 34.2984 18.0657 33.662 18.7099C33.0255 19.3542 32.5918 20.1752 32.4162 21.0691C32.2406 21.9629 32.3307 22.8896 32.6752 23.7315C33.0197 24.5734 33.6033 25.2928 34.3516 25.7989C35.0999 26.305 35.9794 26.5755 36.8792 26.5755C38.0859 26.5755 39.2436 26.0902 40.097 25.2263C40.9505 24.3623 41.43 23.19 41.43 21.9678C41.43 21.0565 41.1629 20.1656 40.6628 19.4079C40.1628 18.6504 39.4522 18.06 38.6208 17.7113ZM21.9844 2.31384C20.7777 2.31386 19.62 2.79907 18.7666 3.66305C17.9133 4.52703 17.4336 5.69897 17.4336 6.92099C17.4336 7.83231 17.7007 8.72321 18.2008 9.48088C18.7009 10.2386 19.4119 10.8294 20.2433 11.178C21.0747 11.5266 21.9896 11.6175 22.8722 11.4398C23.7548 11.262 24.5657 10.8232 25.2022 10.1789C25.8385 9.5347 26.2718 8.71393 26.4474 7.82027C26.623 6.92644 26.5329 5.99981 26.1885 5.15786C25.844 4.31591 25.2609 3.59609 24.5125 3.08988C23.7642 2.58369 22.8843 2.31384 21.9844 2.31384Z" fill="#7B1C19"/>
</svg>
