<svg width="22" height="42" viewBox="0 0 22 42" fill="none" xmlns="http://www.w3.org/2000/svg">
<path d="M12.3213 0.25V5.30566H14.0361C16.0801 5.30781 18.0408 6.13294 19.4873 7.60059C20.8434 8.97667 21.6438 10.8124 21.7402 12.748L21.75 13.1367V14.3721H19.1074V13.1357C19.1061 11.7738 18.5723 10.4671 17.6221 9.50293C16.6717 8.53861 15.3818 7.99547 14.0361 7.99414H7.96387C6.75864 7.9945 5.59355 8.4307 4.67676 9.22266C3.76009 10.0145 3.15115 11.1111 2.95898 12.3154C2.76696 13.5196 3.00392 14.7539 3.62695 15.7979C4.25009 16.842 5.21925 17.6285 6.3623 18.0146L9.34863 19.0254L12.4912 20.0889L16.4697 21.4365C18.2054 22.0247 19.6791 23.2203 20.627 24.8105C21.5748 26.4009 21.9356 28.2819 21.6426 30.1172C21.3495 31.9523 20.4219 33.6215 19.0283 34.8262C17.6349 36.0305 15.8654 36.6923 14.0361 36.6943H12.3213V41.75H9.67871V36.6943H7.96387C5.91986 36.6922 3.95916 35.8671 2.5127 34.3994C1.15665 33.0233 0.356174 31.1876 0.259766 29.252L0.25 28.8633V27.6279H2.89258V28.8643C2.89395 30.2262 3.42774 31.5329 4.37793 32.4971C5.26887 33.4011 6.45807 33.9347 7.71191 33.999L7.96387 34.0059H14.0361C15.2414 34.0055 16.4065 33.5693 17.3232 32.7773C18.2399 31.9855 18.8488 30.8889 19.041 29.6846C19.233 28.4804 18.9961 27.2462 18.373 26.2021C17.7499 25.158 16.7807 24.3715 15.6377 23.9854L12.6514 22.9746L9.50879 21.9111L5.53027 20.5635C3.7946 19.9753 2.32092 18.7797 1.37305 17.1895C0.425173 15.5991 0.0643559 13.7181 0.357422 11.8828C0.650544 10.0477 1.57808 8.37848 2.97168 7.17383C4.36511 5.9695 6.13462 5.30774 7.96387 5.30566H9.67871V0.25H12.3213Z" fill="#7B1C19" stroke="white" stroke-width="0.5"/>
</svg>
