<svg width="35" height="42" viewBox="0 0 35 42" fill="none" xmlns="http://www.w3.org/2000/svg">
<path d="M6.51591 26.6682C6.53457 26.6915 6.55367 26.7143 6.57249 26.7374C6.49799 26.6459 6.4242 26.5539 6.35207 26.4606L6.51591 26.6682Z" fill="#7B1C19"/>
<path fill-rule="evenodd" clip-rule="evenodd" d="M25.9836 11.7011V21.8818L17.7849 25.9613L9.58628 21.8818V11.7011L17.7849 7.6217L25.9836 11.7011ZM17.7849 14.9799L12.5867 12.3937L12.2206 12.5758L12.0082 12.6817L11.554 12.9074V20.6755L17.7849 23.7754L24.0159 20.6755V12.9074L23.5617 12.6817L23.3493 12.5758L22.9832 12.3937L17.7849 14.9799Z" fill="#7B1C19"/>
<path d="M29.8796 9.86876C30.3114 10.5291 30.6896 11.2262 31.0089 11.954L31.1103 12.1909C30.7706 11.3773 30.358 10.6004 29.8796 9.86876Z" fill="#7B1C19"/>
<path d="M27.6706 7.24053C27.2179 6.8168 26.7367 6.42134 26.2296 6.05711L26.0119 5.90326C26.5995 6.30905 27.1535 6.75654 27.6706 7.24053Z" fill="#7B1C19"/>
<path d="M24.6558 5.07333C24.9678 5.24145 25.2742 5.42114 25.5743 5.6126L25.7909 5.75367C25.4222 5.50895 25.0433 5.28214 24.6558 5.07333Z" fill="#7B1C19"/>
<path d="M18.0422 3.34318C18.1697 3.34544 18.2972 3.34981 18.4243 3.35542C18.3859 3.35373 18.3475 3.35202 18.309 3.35063L18.0422 3.34318Z" fill="#7B1C19"/>
<path d="M28.7279 27.06L28.706 27.0856C28.6616 27.1368 28.6162 27.1872 28.571 27.2378C28.6236 27.1789 28.6762 27.1198 28.7279 27.06Z" fill="#7B1C19"/>
<path fill-rule="evenodd" clip-rule="evenodd" d="M17.7849 0.57015C21.19 0.570552 24.5185 1.57572 27.3493 3.45817C30.1802 5.34073 32.3869 8.01615 33.6897 11.1459C34.9924 14.2756 35.3333 17.7194 34.6695 21.0418C34.0063 24.3613 32.3696 27.4113 29.9661 29.8065L19.4469 40.0457H29.5909V42H5.97901V40.0457H16.123L5.61823 29.8208C3.21046 27.4272 1.56999 24.377 0.90355 21.0562C0.236602 17.7327 0.574906 14.2869 1.87648 11.1549C3.1781 8.02296 5.38456 5.34511 8.21627 3.46083C10.9595 1.63548 14.1705 0.634535 17.4658 0.573344L17.7849 0.57015ZM17.7743 2.52335C14.7597 2.52551 11.8131 3.41688 9.30715 5.08504C6.8012 6.75325 4.84786 9.12358 3.69479 11.8965C2.54175 14.6694 2.24035 17.7205 2.82913 20.6638C3.41794 23.6072 4.87066 26.3107 7.00265 28.4324L7.00905 28.4388L17.7849 38.9347L28.5752 28.4245L28.0026 27.8394L28.5827 28.417C30.7116 26.2923 32.1604 23.5871 32.745 20.6431C33.3297 17.6988 33.0236 14.6481 31.8666 11.8768C30.7096 9.10557 28.7534 6.738 26.2451 5.07333C23.7368 3.40871 20.7888 2.52125 17.7743 2.52335Z" fill="#7B1C19"/>
<path d="M0.168115 21.5422C0.223713 21.7948 0.285396 22.0457 0.351707 22.2949C0.313831 22.1526 0.276691 22.0099 0.242299 21.8664L0.168115 21.5422Z" fill="#7B1C19"/>
<path d="M0.0389599 20.9002L0.0992678 21.2169C0.0631377 21.0369 0.0305034 20.8562 0 20.6755C0.0126469 20.7504 0.0253462 20.8254 0.0389599 20.9002Z" fill="#7B1C19"/>
<path d="M1.1197 10.8419L1.03697 11.0453C1.06419 10.9774 1.09163 10.9095 1.1197 10.8419Z" fill="#7B1C19"/>
<path d="M7.22146 3.15472C7.08355 3.25392 6.94745 3.35531 6.81265 3.45817C6.94472 3.3574 7.07787 3.25783 7.21292 3.16058L7.22146 3.15472Z" fill="#7B1C19"/>
<path d="M10.9878 1.07642C10.8407 1.13599 10.6946 1.19821 10.5491 1.26168C10.5934 1.24236 10.6375 1.22261 10.682 1.20365L10.9878 1.07642Z" fill="#7B1C19"/>
<path d="M13.1839 0.346562C12.9706 0.402596 12.7589 0.462722 12.5478 0.526497C12.3366 0.590277 12.1267 0.657867 11.918 0.729324L11.6058 0.839521C12.1241 0.651375 12.6506 0.486645 13.1839 0.346562Z" fill="#7B1C19"/>
</svg>
