<svg width="48" height="30" viewBox="0 0 48 30" fill="none" xmlns="http://www.w3.org/2000/svg">
<path fill-rule="evenodd" clip-rule="evenodd" d="M7.29242 7.54786C8.35874 7.33525 9.46418 7.44429 10.4687 7.86137C11.4732 8.27845 12.3322 8.98469 12.9366 9.89123C13.5031 10.7412 13.8219 11.7315 13.8596 12.7505L13.8634 12.9548C13.8618 14.4168 13.2819 15.8184 12.251 16.8517C11.22 17.8851 9.82209 18.4658 8.36467 18.4672C7.27769 18.4672 6.21493 18.1443 5.3109 17.5389C4.40675 16.9333 3.70181 16.072 3.28548 15.0646C2.8692 14.0572 2.75988 12.9484 2.97209 11.8789C3.18434 10.8093 3.70859 9.82695 4.4776 9.05608C5.2466 8.28526 6.22617 7.76049 7.29242 7.54786ZM8.36505 8.88981C7.56247 8.88981 6.7781 9.12863 6.11099 9.57543C5.44393 10.0222 4.92378 10.6569 4.61693 11.3994C4.31013 12.142 4.22998 12.9592 4.38637 13.7474C4.54281 14.5356 4.92886 15.2601 5.49603 15.8286C6.06324 16.3971 6.78627 16.7846 7.57336 16.9415C8.36047 17.0984 9.17654 17.0176 9.9179 16.7098C10.6592 16.402 11.2928 15.8809 11.7383 15.2126C12.1838 14.5443 12.4215 13.7584 12.4216 12.9548C12.4216 11.8773 11.9942 10.8431 11.2337 10.0807C10.4731 9.31837 9.44124 8.88982 8.36505 8.88981Z" fill="white"/>
<path fill-rule="evenodd" clip-rule="evenodd" d="M38.5623 7.54786C39.6286 7.33525 40.7341 7.44429 41.7386 7.86137C42.7431 8.27845 43.6021 8.98469 44.2064 9.89123C44.773 10.7412 45.0918 11.7315 45.1295 12.7505L45.1333 12.9548C45.1317 14.4168 44.5517 15.8184 43.5209 16.8517C42.4899 17.8851 41.092 18.4658 39.6346 18.4672C38.5476 18.4672 37.4848 18.1443 36.5808 17.5389C35.6766 16.9333 34.9717 16.072 34.5554 15.0646C34.1391 14.0572 34.0298 12.9484 34.242 11.8789C34.4542 10.8093 34.9785 9.82695 35.7475 9.05608C36.5165 8.28526 37.4961 7.76049 38.5623 7.54786ZM39.6349 8.88981C38.8324 8.88981 38.048 9.12863 37.3809 9.57543C36.7138 10.0222 36.1937 10.6569 35.8868 11.3994C35.58 12.142 35.4999 12.9592 35.6563 13.7474C35.8127 14.5356 36.1988 15.2601 36.7659 15.8286C37.3331 16.3971 38.0562 16.7846 38.8433 16.9415C39.6304 17.0984 40.4464 17.0176 41.1878 16.7098C41.9291 16.402 42.5627 15.8809 43.0082 15.2126C43.4537 14.5443 43.6914 13.7584 43.6915 12.9548C43.6915 11.8773 43.2641 10.8431 42.5036 10.0807C41.743 9.31837 40.7111 8.88982 39.6349 8.88981Z" fill="white"/>
<path fill-rule="evenodd" clip-rule="evenodd" d="M22.5888 0.138472C23.9914 -0.139615 25.4454 0.00316495 26.7667 0.548629C28.088 1.09413 29.2175 2.01802 30.0121 3.20323C30.757 4.31439 31.1765 5.60871 31.226 6.94068L31.231 7.20739C31.2289 9.11832 30.4662 10.9504 29.1105 12.3016C27.7547 13.6529 25.9166 14.4128 23.9992 14.4148C22.5691 14.4148 21.1711 13.9922 19.982 13.2003C18.7929 12.4084 17.866 11.2828 17.3187 9.96587C16.7715 8.64892 16.6282 7.19959 16.9072 5.80152C17.1863 4.40345 17.8748 3.11884 18.8861 2.11088C19.8974 1.10293 21.1861 0.416571 22.5888 0.138472ZM23.9996 1.4283C22.8529 1.4283 21.7317 1.76735 20.7783 2.40232C19.8248 3.03731 19.0818 3.94011 18.6429 4.99605C18.2041 6.05199 18.089 7.21415 18.3127 8.33514C18.5365 9.4561 19.0887 10.4859 19.8995 11.2941C20.7104 12.1023 21.7439 12.6528 22.8686 12.8758C23.9932 13.0987 25.1588 12.984 26.2182 12.5467C27.2776 12.1093 28.1833 11.3686 28.8204 10.4183C29.4574 9.46792 29.7976 8.35035 29.7976 7.20739C29.7975 5.6748 29.1866 4.20476 28.0993 3.12105C27.012 2.03738 25.5373 1.42832 23.9996 1.4283Z" fill="white"/>
<path d="M12.2277 20.8513L12.451 20.857C12.8661 20.8781 13.2732 20.9566 13.6617 21.0878C13.9138 20.6573 14.2221 20.2571 14.5818 19.8987C15.6484 18.8357 17.0827 18.2232 18.5868 18.1842L18.7326 18.1823H29.2666L29.4124 18.1842C30.9166 18.2232 32.3509 18.8357 33.4175 19.8987C33.7772 20.2572 34.0855 20.6575 34.3377 21.088C34.7264 20.9566 35.1337 20.8782 35.549 20.857L35.7723 20.8513H43.4976L43.7209 20.857C44.8328 20.9136 45.8879 21.3814 46.6792 22.1746C47.4705 22.9679 47.9374 24.026 47.9939 25.1416L48 25.3653V29.9615H46.5579V25.3649C46.557 24.5526 46.2346 23.7733 45.6612 23.1985C45.0877 22.6237 44.3099 22.2999 43.4984 22.299H35.7715C35.4775 22.2993 35.188 22.342 34.9109 22.4237C35.0476 22.8976 35.1248 23.3902 35.1379 23.8906L35.1398 24.036V30H33.7064V24.0345C33.7051 22.8616 33.2372 21.737 32.4051 20.9077C31.573 20.0784 30.4448 19.6119 29.2681 19.6106H18.7311C17.5544 19.6119 16.4262 20.0784 15.5941 20.9077C14.7621 21.737 14.2941 22.8616 14.2928 24.0345V30H12.8594V24.036C12.8601 23.4856 12.9385 22.9433 13.0884 22.4235C12.8116 22.342 12.5222 22.2993 12.2285 22.299H4.50165C3.69007 22.2999 2.9123 22.6237 2.33881 23.1985C1.76539 23.7733 1.44297 24.5526 1.44215 25.3649V29.9615H0V25.3653C0.00146125 24.1682 0.476744 23.0207 1.32076 22.1746C2.11208 21.3814 3.16721 20.9136 4.2791 20.857L4.50241 20.8513H12.2277Z" fill="white"/>
</svg>
