<svg width="160" height="104" viewBox="0 0 160 104" fill="none" xmlns="http://www.w3.org/2000/svg">
<path fill-rule="evenodd" clip-rule="evenodd" d="M0 69.8128H3.23285V75.4743L8.34826 69.8128H12.5325L6.44986 76.2256L12.797 83.5438H8.4335L3.23285 77.1966V83.5438H0V69.8128ZM35.9043 73.3187L32.1678 83.5438H28.4619L34.304 69.8128H37.5049L43.347 83.5438H39.6411L35.9043 73.3187ZM20.5732 73.3187L18.7105 78.4163H22.4362L20.5732 73.3187ZM17.7918 80.9298L16.8367 83.5438H13.1308L18.9729 69.8128H22.1738L28.0159 83.5438H24.31L23.3546 80.9298H17.7918ZM51.4392 73.3187L49.5765 78.4163H53.3022L51.4392 73.3187ZM48.6578 80.9298L47.7027 83.5438H43.9968L49.8389 69.8128H53.0398L58.8819 83.5438H55.176L54.2206 80.9298H48.6578ZM61.3045 69.8128H64.6452V80.8974H69.0453V69.8128H72.386V80.8974H76.7862V69.8128H80.1268V83.5435H61.3045V69.8128ZM109.923 69.8128H113.263V83.5435H109.923V74.819L104.549 83.5435H101.05V69.8128H104.391V79.1375L109.923 69.8128ZM87.8134 75.1763H93.3449V69.8128H96.6856V83.5435H93.3449V77.8224H87.8134V83.5435H84.4728V69.8128H87.8134V75.1763ZM117.82 69.8128H121.053V75.4743L126.169 69.8128H130.353L124.27 76.2256L130.617 83.5438H126.254L121.053 77.1966V83.5438H117.82V69.8128ZM138.674 69.2459C142.869 69.2459 146.27 72.5741 146.27 76.6786C146.27 80.7819 142.869 84.11 138.674 84.11C134.481 84.11 131.08 80.7819 131.08 76.6786C131.08 72.5741 134.481 69.2459 138.674 69.2459ZM138.675 72.3333C140.877 72.3333 142.662 74.278 142.662 76.6783C142.662 79.0779 140.877 81.0229 138.675 81.0229C136.473 81.0229 134.687 79.0779 134.687 76.6783C134.687 74.278 136.473 72.3333 138.675 72.3333ZM149.23 69.8128H156.191C158.037 69.8128 159.535 71.3014 159.535 73.1372C159.535 74.6416 158.527 75.9119 157.147 76.3214C158.78 76.695 160 78.1498 160 79.8865C160 81.9055 158.352 83.5435 156.32 83.5435H149.23V69.8128ZM155.114 77.899C155.994 77.8987 156.707 78.6085 156.707 79.4827C156.707 80.3573 155.993 81.0668 155.114 81.0664L152.571 81.0658V77.9001L155.114 77.899ZM154.87 72.4585C155.647 72.4585 156.276 73.084 156.276 73.8564C156.276 74.6285 155.646 75.2543 154.87 75.2543L152.571 75.254V72.4589L154.87 72.4585Z" fill="#7B1C19"/>
<path fill-rule="evenodd" clip-rule="evenodd" d="M0 87.1599H3.23285V92.8213L8.34827 87.1599H12.5325L6.44986 93.5727L12.797 100.891H8.4335L3.23285 94.5436V100.891H0V87.1599ZM94.2303 92.5233H99.7618V87.1599H103.102V100.891H99.7618V95.1694H94.2303V100.891H90.8896V87.1599H94.2303V92.5233ZM77.6729 87.1599H83.959C86.3422 87.1599 88.2753 89.0811 88.2753 91.4496C88.2753 93.8181 86.3419 95.7393 83.959 95.7393H81.0136V100.891H77.6729V87.1599ZM81.0136 89.8059V93.0932L83.29 93.0936C84.2036 93.0936 84.9445 92.3573 84.9445 91.4492C84.9445 90.5419 84.2033 89.8056 83.29 89.8056L81.0136 89.8059ZM73.8879 87.1599V89.8059H67.7934V92.5233H73.6072V95.1694H67.7934V98.066H74.1079V100.891H64.4528V87.1599H73.8879ZM47.8415 100.891V87.1599H51.1821V98.2444H56.7136V87.1599H60.0543V98.2444H61.5218V104H58.6376V100.891H47.8415ZM34.7841 92.5233H40.3156V87.1599H43.6562V100.891H40.3156V95.1694H34.7841V100.891H31.4434V87.1599H34.7841V92.5233ZM20.8798 86.5933C25.0748 86.5933 28.4754 89.9215 28.4754 94.026C28.4754 98.1293 25.0748 101.457 20.8798 101.457C16.6864 101.457 13.2858 98.1293 13.2858 94.026C13.2858 89.9215 16.6864 86.5933 20.8798 86.5933ZM20.8804 89.6807C23.0831 89.6807 24.8679 91.6254 24.8679 94.0257C24.8679 96.4254 23.0831 98.3703 20.8804 98.3703C18.6785 98.3703 16.8933 96.4254 16.8933 94.0257C16.8933 91.6254 18.6785 89.6807 20.8804 89.6807Z" fill="#7B1C19"/>
<path d="M42.2366 13.8924H13.9778V41.9791H42.2366L42.8476 42.5862L28.1072 27.9358L42.9642 13.1694L42.2366 13.8924Z" fill="#7B1C19"/>
<path d="M10.2551 10.1926H45.9593L42.9642 13.1694L56.2177 0H2.49083e-06V55.8709H56.2177L42.8487 42.5873L45.9593 45.6789H10.2551V10.1926Z" fill="#7B1C19"/>
<path d="M45.9593 10.1926H10.2551V45.6789H45.9593L42.8487 42.5873L42.8476 42.5862L42.2366 41.9791H13.9778V13.8924H42.2366L42.9642 13.1694L45.9593 10.1926Z" fill="#7B1C19"/>
</svg>
