<svg width="200" height="43" viewBox="0 0 200 43" fill="none" xmlns="http://www.w3.org/2000/svg">
<path d="M11.023 34.9463L15.3889 28.2758C15.5483 28.0327 15.4724 27.7111 15.2295 27.5568C11.338 25.0923 8.74323 20.7114 8.74323 15.7079C8.74323 12.2221 10.0096 9.04382 12.0882 6.59867C12.2565 6.40059 12.2577 6.11118 12.0844 5.91825L6.90374 0.168721C6.70512 -0.0512268 6.361 -0.0576622 6.15858 0.158427C2.34172 4.25384 0 9.7847 0 15.8725C0 23.9424 4.11417 31.0335 10.3272 35.098C10.5587 35.2511 10.8711 35.1804 11.023 34.9463Z" fill="#7B1C19"/>
<path d="M32.8715 5.91825C32.6982 6.11118 32.6995 6.40059 32.8677 6.59867C34.9463 9.04382 36.2127 12.2221 36.2127 15.7079C36.2127 20.7114 33.618 25.0923 29.7265 27.5568C29.4836 27.7111 29.4076 28.0327 29.5658 28.2758L33.9317 34.9463C34.0848 35.1804 34.396 35.2511 34.6288 35.098C40.8405 31.0335 44.9559 23.9424 44.9559 15.8725C44.9559 9.7847 42.6142 4.25384 38.7961 0.158427C38.5949 -0.0576622 38.2495 -0.0512268 38.0522 0.168721L32.8715 5.91825Z" fill="#7B1C19"/>
<path d="M13.6418 36.2261C13.4748 36.4949 13.5823 36.8576 13.8707 36.9785C16.5237 38.0989 19.4297 38.7227 22.4811 38.7227C25.5313 38.7227 28.4385 38.0989 31.0902 36.9785C31.3787 36.8576 31.4862 36.4949 31.3192 36.2261L22.9087 22.6665C22.7101 22.3475 22.2509 22.3475 22.0535 22.6665L13.6418 36.2261Z" fill="#7B1C19"/>
<path d="M198.766 27.8513C198.712 27.7137 198.554 27.661 198.428 27.7356C196.998 28.5909 195.324 29.0938 193.815 29.0938C190.299 29.0938 187.609 26.3155 187.609 22.6536C187.609 19.0367 190.299 16.2584 193.815 16.2584C195.323 16.2584 196.995 16.76 198.425 17.6102C198.55 17.6848 198.708 17.6321 198.761 17.4945L199.977 14.3985C200.02 14.2891 199.981 14.1631 199.883 14.1001C198.137 12.9823 196.046 12.3315 193.815 12.3315C187.957 12.3315 183.358 16.8308 183.358 22.6973C183.358 28.5215 187.957 33.0195 193.815 33.0195C196.049 33.0195 198.142 32.3686 199.89 31.2496C199.987 31.1878 200.025 31.0605 199.983 30.9525L198.766 27.8513Z" fill="#7B1C19"/>
<path d="M64.6513 12.3315C62.4183 12.3315 60.3271 12.9823 58.5812 14.1001C58.4838 14.1631 58.4446 14.2891 58.4876 14.3985L59.7034 17.4945C59.7565 17.6321 59.9146 17.6848 60.0411 17.6102C61.4695 16.76 63.1432 16.2584 64.6513 16.2584C67.4257 16.2584 69.6801 17.9935 70.5087 20.5017H62.6081C62.4765 20.5017 62.3702 20.6098 62.3702 20.7435V23.8061C62.3702 23.9398 62.4765 24.0479 62.6081 24.0479H70.7175C70.1304 26.9973 67.7027 29.0938 64.6513 29.0938C63.142 29.0938 61.4669 28.5909 60.0374 27.7356C59.9121 27.661 59.7527 27.7137 59.6996 27.8513L58.4825 30.9512C58.4383 31.0605 58.4775 31.1878 58.5749 31.2496C60.322 32.3673 62.4171 33.0195 64.6513 33.0195C70.5075 33.0195 75.1074 28.5215 75.1074 22.6973C75.1074 16.8308 70.5075 12.3315 64.6513 12.3315Z" fill="#7B1C19"/>
<path d="M107.222 28.753H103.884V22.48H107.222C109.525 22.48 110.886 23.734 110.886 25.6158C110.886 27.8822 109.439 28.753 107.222 28.753ZM107.379 18.5993H103.884V12.4331C103.884 12.2877 103.757 12.1745 103.614 12.1938L99.7063 12.7456C99.5887 12.7611 99.5001 12.864 99.5001 12.9849V32.1937C99.5001 32.3262 99.6064 32.4342 99.7379 32.4342H107.379C112.376 32.4342 115.39 30.0585 115.39 25.6158C115.39 21.1744 112.274 18.5993 107.379 18.5993Z" fill="#7B1C19"/>
<path d="M81.6924 12.7739C81.576 12.7739 81.4773 12.8575 81.4583 12.9746C81.3141 13.8685 80.7144 17.5819 80.1363 20.9416C79.844 22.6472 79.3329 25.365 78.856 26.3657C78.1475 27.85 76.957 28.6012 75.4478 28.9536C75.3175 28.9832 75.2352 29.1131 75.2681 29.2443L76.1524 32.7661C76.1815 32.8831 76.2954 32.9616 76.4143 32.9487C79.8934 32.5384 82.0226 31.1698 83.1675 26.8056C83.8089 24.3617 85.2081 16.7304 85.2081 16.7304H90.0699V32.2542C90.0699 32.3879 90.175 32.496 90.3065 32.496H94.1791C94.3094 32.496 94.4156 32.3879 94.4156 32.2542V13.0158C94.4156 12.882 94.3094 12.7739 94.1791 12.7739H81.6924Z" fill="#7B1C19"/>
<path d="M151.21 28.7954C147.835 28.7954 145.524 26.1638 145.524 22.7809C145.524 19.2733 147.959 16.6417 151.334 16.6417C154.669 16.6417 157.181 19.2733 157.181 22.6973C157.181 26.2062 154.587 28.7954 151.21 28.7954ZM151.524 12.5411C149.313 12.5411 147.146 13.5611 145.805 14.738V12.4331C145.805 12.2877 145.678 12.1745 145.535 12.1938L141.626 12.7456C141.508 12.7611 141.422 12.864 141.422 12.9849V41.919C141.422 42.0515 141.529 42.1595 141.659 42.1595H145.568C145.698 42.1595 145.805 42.0515 145.805 41.919V31.2084C147.323 32.1551 149.17 32.6966 151.267 32.6966C157.052 32.6966 161.124 28.4662 161.124 22.7128C161.124 16.6417 156.852 12.5411 151.524 12.5411Z" fill="#7B1C19"/>
<path d="M127.818 28.1767C124.804 28.1767 122.36 25.6917 122.36 22.6266C122.36 19.5615 124.804 17.0764 127.818 17.0764C130.833 17.0764 133.277 19.5615 133.277 22.6266C133.277 25.6917 130.833 28.1767 127.818 28.1767ZM128.59 12.927C126.027 12.927 123.892 13.8827 122.701 15.2152C123.502 11.5867 124.969 10.231 127.321 9.38468C128.855 8.83417 130.56 8.58463 132.067 8.19233C134.438 7.57622 135.09 7.14147 136.347 6.51249C136.458 6.45718 136.514 6.32084 136.467 6.20379L134.982 2.52898C134.931 2.40165 134.789 2.34248 134.665 2.40165C133.72 2.85312 132.441 3.39463 130.961 3.75607C129.411 4.13422 127.454 4.62428 125.694 5.24554C119.284 7.50804 117.89 13.0428 117.863 20.75C117.862 20.7525 117.859 20.7564 117.859 20.759C117.859 20.777 117.862 20.7937 117.862 20.8117C117.862 20.867 117.859 20.921 117.859 20.9763L117.868 20.9738C117.951 28.7285 122.371 32.6053 127.972 32.6053C133.708 32.6053 137.924 28.4096 137.924 22.7038C137.924 17.1227 133.872 12.927 128.59 12.927Z" fill="#7B1C19"/>
<path d="M182.902 12.7739H178.45C178.357 12.7739 178.274 12.828 178.235 12.9141L172.562 25.3779L166.547 12.909C166.508 12.8267 166.426 12.7739 166.335 12.7739H161.839C161.664 12.7739 161.549 12.9604 161.625 13.1199L170.045 30.8894C170.045 30.8894 168.445 34.6234 167.677 35.7566C166.816 37.0261 165.757 38.1902 163.87 38.8809C163.762 38.9208 163.695 39.0314 163.714 39.1459L164.347 42.8001C164.371 42.9351 164.504 43.0239 164.636 42.9943C167.016 42.4785 168.345 41.8354 169.957 40.1478C171.285 38.7574 172.49 36.374 173.318 34.563C176.109 28.4687 182.081 15.385 183.118 13.1135C183.191 12.954 183.075 12.7739 182.902 12.7739Z" fill="#7B1C19"/>
</svg>
