<svg width="170" height="82" viewBox="0 0 170 82" fill="none" xmlns="http://www.w3.org/2000/svg">
<path d="M52.5075 53.6118H63.2966V57.1487H58.1641V82H52.5075V53.6118Z" fill="#7B1C19"/>
<path d="M69.693 71.3428L70.6625 57.1487H70.9872L71.9566 71.3428H69.693ZM63.4288 82H68.9671L69.4913 74.4608H72.1584L72.6849 82H78.2209L75.2708 53.6118H66.3789L63.4288 82Z" fill="#7B1C19"/>
<path d="M86.322 72.0641V77.416C86.322 78.1373 86.8786 78.3468 87.2033 78.3468C87.7367 78.3468 88.1078 77.9047 88.1078 77.416V70.8076C88.1078 69.9234 87.9454 68.9461 85.8349 68.9461H83.5389V65.828H85.9277C87.528 65.828 88.1078 65.4557 88.1078 63.7106V58.0794C88.1078 57.5908 87.7367 57.1487 87.2033 57.1487C86.8786 57.1487 86.322 57.3349 86.322 58.0794V62.71H80.663V58.6844C80.663 56.7066 80.895 53.6118 84.8608 53.6118H89.5457C93.5116 53.6118 93.7667 56.7066 93.7667 58.6844V63.2219C93.7667 66.3167 91.6098 67.1544 89.9168 67.0846V67.3638C93.7203 67.2707 93.7667 70.2026 93.7667 71.2032V76.9274C93.7667 78.9285 93.5116 82 89.5457 82H84.8608C80.895 82 80.663 78.9285 80.663 76.9274V72.0641H86.322Z" fill="#7B1C19"/>
<path d="M97.4775 53.6118H110.581V82H104.922V57.1487H103.136V82H97.4775V53.6118Z" fill="#7B1C19"/>
<path d="M119.951 69.2253V57.1487H120.693C121.296 57.1487 121.737 57.6606 121.737 58.5681V67.8059C121.737 68.7134 121.296 69.2253 120.693 69.2253H119.951ZM114.292 82H119.951V72.3434H123.198C127.141 72.3434 127.396 69.2718 127.396 67.2707V58.6844C127.396 56.7066 127.141 53.6118 123.198 53.6118H114.292V82Z" fill="#7B1C19"/>
<path d="M138.551 77.416C138.551 77.9047 138.18 78.3468 137.647 78.3468C137.322 78.3468 136.765 78.1373 136.765 77.416V58.0794C136.765 57.3349 137.322 57.1487 137.647 57.1487C138.18 57.1487 138.551 57.5908 138.551 58.0794V77.416ZM131.106 76.9274C131.106 78.9285 131.362 82 135.304 82H140.012C143.955 82 144.21 78.9285 144.21 76.9274V58.6844C144.21 56.7066 143.955 53.6118 140.012 53.6118H135.304C131.362 53.6118 131.106 56.7066 131.106 58.6844V76.9274Z" fill="#7B1C19"/>
<path d="M162.625 53.6118H170V82H164.341V64.1992H164.132L161.21 82H156.688L153.789 64.1992H153.58V82H147.921V53.6118H155.273L158.96 73.5766L162.625 53.6118Z" fill="#7B1C19"/>
<path d="M45.1741 14.7991C43.4416 7.19012 39.1 1.00057 38.5016 0C37.5554 1.41941 34.0928 6.88762 32.3325 12.9376C30.4098 19.7089 30.1269 25.7123 30.7902 31.5993C31.4488 37.5096 33.9374 43.5829 33.9374 43.5829C35.2593 46.7474 37.24 50.168 38.5295 51.8434C40.4196 49.3769 44.7636 42.0238 46.118 32.437C46.8718 27.0851 46.9042 22.4081 45.1741 14.7991ZM38.5016 49.9353C37.6505 48.3297 36.3285 45.2815 36.2033 40.5346C36.1708 35.9739 37.996 32.0414 38.5295 31.227C39.0049 32.0414 40.5774 35.462 40.7652 40.139C40.8928 44.6998 39.3806 48.3065 38.5016 49.9353ZM44.6708 27.7134C44.6059 30.622 44.2603 33.6935 43.8196 35.5318C43.9773 32.3672 43.5993 27.9228 42.8757 24.4325C42.1521 20.9654 40.1042 15.1481 38.4692 12.4722C36.9593 15.0318 35.0993 20.0579 34.1252 24.4092C33.1465 28.7605 33.1187 34.0426 33.1187 35.6249C32.8589 34.2985 32.2095 29.5284 32.3928 24.7582C32.5458 20.8258 33.4642 16.7537 33.9675 14.8922C35.8879 8.67935 38.061 4.70034 38.4692 4.07207C38.8773 4.70034 41.6141 9.61009 43.0334 14.7525C44.4458 19.895 44.7311 24.828 44.6708 27.7134Z" fill="#7B1C19"/>
<path d="M28.2692 53.6118V62.4773C28.2808 62.4773 28.29 62.454 28.3016 62.454C31.4048 59.336 36.4375 59.336 39.543 62.454C42.6461 65.5488 42.6461 70.5982 39.543 73.7162C39.5291 73.7395 39.5152 73.7395 39.5012 73.7628C39.485 73.7628 39.4688 73.786 39.4548 73.8093C36.3587 76.8808 32.3139 78.4166 28.2692 78.4166C24.2059 78.4166 20.1426 76.8808 17.0441 73.7628C11.5799 68.2945 10.9329 59.8013 15.0982 53.6118C15.6595 52.7741 16.3066 51.983 17.0441 51.2384C20.1426 48.1203 24.2059 46.5845 28.2692 46.5845V25.2701C12.6561 25.2701 0 37.9517 0 53.6118C0 69.2718 12.6561 81.9767 28.2692 81.9767C36.4097 81.9767 43.7431 78.5096 48.9011 72.9949V53.6118H28.2692Z" fill="#7B1C19"/>
</svg>
